<svg width="97" height="67" viewBox="0 0 97 67" fill="none" xmlns="http://www.w3.org/2000/svg">
<path d="M21.812 66.022C19.7213 66.022 17.716 65.1047 15.796 63.27C13.9187 61.4353 12.3827 58.7687 11.188 55.27C9.99333 51.814 9.396 47.6327 9.396 42.726C9.396 42.1287 9.396 41.51 9.396 40.87C9.43867 40.23 9.48133 39.5687 9.524 38.886C9.09733 38.9287 8.67067 38.95 8.244 38.95C7.86 38.95 7.49733 38.95 7.156 38.95C4.68133 38.95 2.868 38.63 1.716 37.99C0.606667 37.35 0.052 36.518 0.052 35.494C0.052 34.47 0.542667 33.3393 1.524 32.102C2.548 30.8647 3.956 29.606 5.748 28.326C7.54 27.046 9.60933 25.894 11.956 24.87C12.9373 21.3287 14.2173 17.5953 15.796 13.67C17.3747 9.74466 19.3373 5.64866 21.684 1.382C21.9827 0.827332 22.4307 0.549999 23.028 0.549999C23.412 0.549999 23.7533 0.677999 24.052 0.933998C24.3507 1.19 24.5 1.53133 24.5 1.958C24.5 2.17133 24.436 2.44866 24.308 2.79C23.9667 3.47267 23.6253 4.17666 23.284 4.902C22.9427 5.58466 22.6013 6.26733 22.26 6.95C22.9 6.822 23.3907 6.758 23.732 6.758C24.0733 6.758 24.4787 6.73667 24.948 6.694C25.4173 6.65133 26.1427 6.566 27.124 6.438C28.4893 6.22466 29.7693 6.054 30.964 5.926C32.2013 5.798 33.3533 5.734 34.42 5.734C38.4733 5.734 41.46 6.438 43.38 7.846C45.3 9.254 46.26 11.046 46.26 13.222C46.26 15.8247 45.0013 18.6833 42.484 21.798C40.3933 24.358 37.7693 26.8327 34.612 29.222C31.4973 31.6113 27.9773 33.6593 24.052 35.366C20.1693 37.03 16.0307 38.1393 11.636 38.694C11.4653 39.9313 11.3373 41.126 11.252 42.278C11.1667 43.43 11.124 44.518 11.124 45.542C11.124 49.254 11.5507 52.3047 12.404 54.694C13.3 57.126 14.388 59.0247 15.668 60.39C16.9907 61.7553 18.292 62.7153 19.572 63.27C20.8947 63.8247 21.9613 64.102 22.772 64.102C23.412 64.102 23.8387 63.9953 24.052 63.782C24.2227 63.5687 24.4147 63.462 24.628 63.462C25.0973 63.462 25.332 63.782 25.332 64.422C25.332 64.934 25.0973 65.2753 24.628 65.446C23.732 65.83 22.7933 66.022 21.812 66.022ZM11.828 37.542C16.308 36.646 20.3613 35.2807 23.988 33.446C27.6573 31.6113 30.9 29.4993 33.716 27.11C36.532 24.7207 38.9 22.2247 40.82 19.622C41.9293 18.1713 42.7187 16.87 43.188 15.718C43.6573 14.5233 43.892 13.478 43.892 12.582C43.892 11.1313 43.38 9.97933 42.356 9.126C41.3747 8.23 40.0733 7.59 38.452 7.206C36.8307 6.822 35.0813 6.63 33.204 6.63C31.2413 6.63 29.3 6.80066 27.38 7.142C25.46 7.48333 23.7533 7.93133 22.26 8.486C21.9613 8.614 21.7053 8.63533 21.492 8.55C20.2547 11.2807 19.124 13.9047 18.1 16.422C17.1187 18.8967 16.244 21.2647 15.476 23.526C17.3107 22.9287 19.2307 22.4167 21.236 21.99C23.2413 21.5633 25.3107 21.3073 27.444 21.222H27.7C28.1267 21.222 28.34 21.3073 28.34 21.478C28.34 21.606 28.1267 21.7553 27.7 21.926C27.316 22.0967 26.6547 22.2033 25.716 22.246C23.7533 22.3313 21.8973 22.5873 20.148 23.014C18.3987 23.398 16.7347 23.8887 15.156 24.486C14.3453 26.9607 13.6627 29.286 13.108 31.462C12.596 33.638 12.1693 35.6647 11.828 37.542ZM7.412 38.054C7.75333 38.054 8.09467 38.054 8.436 38.054C8.82 38.0113 9.204 37.9687 9.588 37.926C9.75867 36.0913 10.0147 34.1927 10.356 32.23C10.6973 30.2247 11.1453 28.1553 11.7 26.022C8.96933 27.43 6.79333 29.0087 5.172 30.758C3.55067 32.4647 2.74 33.9793 2.74 35.302C2.74 36.1127 3.124 36.774 3.892 37.286C4.66 37.798 5.83333 38.054 7.412 38.054ZM42.9465 30.374C42.5625 30.374 42.2852 30.182 42.1145 29.798C41.9865 29.3713 41.9225 29.0727 41.9225 28.902C41.9225 28.2193 42.1145 27.5793 42.4985 26.982C42.9252 26.342 43.3945 26.0007 43.9065 25.958H44.0985C44.6105 25.958 44.9518 26.086 45.1225 26.342C45.3358 26.5553 45.4425 26.8327 45.4425 27.174C45.4425 27.814 45.1652 28.518 44.6105 29.286C44.0558 30.0113 43.5012 30.374 42.9465 30.374ZM39.6825 53.286C38.2318 53.286 37.2505 52.7313 36.7385 51.622C36.2265 50.5127 35.9705 49.2327 35.9705 47.782C35.9705 46.3313 36.1198 44.8167 36.4185 43.238C36.7598 41.6167 37.1225 40.1447 37.5065 38.822C37.9332 37.4993 38.2532 36.5607 38.4665 36.006C38.9358 35.0247 39.4052 34.1927 39.8745 33.51C40.3438 32.7847 40.8558 32.422 41.4105 32.422C41.7945 32.422 42.0718 32.5713 42.2425 32.87C42.4558 33.126 42.5625 33.4673 42.5625 33.894C42.5625 34.7473 42.3278 35.622 41.8585 36.518C41.3892 37.3713 40.9625 38.182 40.5785 38.95C39.7252 40.6993 39.0425 42.2567 38.5305 43.622C38.0612 44.9873 37.8265 46.694 37.8265 48.742C37.8265 50.0647 37.9545 51.0247 38.2105 51.622C38.5092 52.2193 38.9145 52.518 39.4265 52.518C40.1092 52.518 40.8985 52.134 41.7945 51.366C42.6905 50.5553 43.6078 49.4887 44.5465 48.166C45.4852 46.8433 46.3172 45.414 47.0425 43.878C47.5118 42.8967 47.8745 42.406 48.1305 42.406C48.3012 42.406 48.3865 42.5767 48.3865 42.918C48.3865 43.3873 48.1945 44.07 47.8105 44.966C47.4692 45.8193 47.0425 46.694 46.5305 47.59C46.0612 48.486 45.6132 49.19 45.1865 49.702C44.4612 50.6407 43.6292 51.4727 42.6905 52.198C41.7518 52.9233 40.7492 53.286 39.6825 53.286ZM66.3745 66.022C64.2838 66.022 62.2785 65.1047 60.3585 63.27C58.4812 61.4353 56.9452 58.7687 55.7505 55.27C54.5558 51.814 53.9585 47.6327 53.9585 42.726C53.9585 42.1287 53.9585 41.51 53.9585 40.87C54.0012 40.23 54.0438 39.5687 54.0865 38.886C53.6598 38.9287 53.2332 38.95 52.8065 38.95C52.4225 38.95 52.0598 38.95 51.7185 38.95C49.2438 38.95 47.4305 38.63 46.2785 37.99C45.1692 37.35 44.6145 36.518 44.6145 35.494C44.6145 34.47 45.1052 33.3393 46.0865 32.102C47.1105 30.8647 48.5185 29.606 50.3105 28.326C52.1025 27.046 54.1718 25.894 56.5185 24.87C57.4998 21.3287 58.7798 17.5953 60.3585 13.67C61.9372 9.74466 63.8998 5.64866 66.2465 1.382C66.5452 0.827332 66.9932 0.549999 67.5905 0.549999C67.9745 0.549999 68.3158 0.677999 68.6145 0.933998C68.9132 1.19 69.0625 1.53133 69.0625 1.958C69.0625 2.17133 68.9985 2.44866 68.8705 2.79C68.5292 3.47267 68.1878 4.17666 67.8465 4.902C67.5052 5.58466 67.1638 6.26733 66.8225 6.95C67.4625 6.822 67.9532 6.758 68.2945 6.758C68.6358 6.758 69.0412 6.73667 69.5105 6.694C69.9798 6.65133 70.7052 6.566 71.6865 6.438C73.0518 6.22466 74.3318 6.054 75.5265 5.926C76.7638 5.798 77.9158 5.734 78.9825 5.734C83.0358 5.734 86.0225 6.438 87.9425 7.846C89.8625 9.254 90.8225 11.046 90.8225 13.222C90.8225 15.8247 89.5638 18.6833 87.0465 21.798C84.9558 24.358 82.3318 26.8327 79.1745 29.222C76.0598 31.6113 72.5398 33.6593 68.6145 35.366C64.7318 37.03 60.5932 38.1393 56.1985 38.694C56.0278 39.9313 55.8998 41.126 55.8145 42.278C55.7292 43.43 55.6865 44.518 55.6865 45.542C55.6865 49.254 56.1132 52.3047 56.9665 54.694C57.8625 57.126 58.9505 59.0247 60.2305 60.39C61.5532 61.7553 62.8545 62.7153 64.1345 63.27C65.4572 63.8247 66.5238 64.102 67.3345 64.102C67.9745 64.102 68.4012 63.9953 68.6145 63.782C68.7852 63.5687 68.9772 63.462 69.1905 63.462C69.6598 63.462 69.8945 63.782 69.8945 64.422C69.8945 64.934 69.6598 65.2753 69.1905 65.446C68.2945 65.83 67.3558 66.022 66.3745 66.022ZM56.3905 37.542C60.8705 36.646 64.9238 35.2807 68.5505 33.446C72.2198 31.6113 75.4625 29.4993 78.2785 27.11C81.0945 24.7207 83.4625 22.2247 85.3825 19.622C86.4918 18.1713 87.2812 16.87 87.7505 15.718C88.2198 14.5233 88.4545 13.478 88.4545 12.582C88.4545 11.1313 87.9425 9.97933 86.9185 9.126C85.9372 8.23 84.6358 7.59 83.0145 7.206C81.3932 6.822 79.6438 6.63 77.7665 6.63C75.8038 6.63 73.8625 6.80066 71.9425 7.142C70.0225 7.48333 68.3158 7.93133 66.8225 8.486C66.5238 8.614 66.2678 8.63533 66.0545 8.55C64.8172 11.2807 63.6865 13.9047 62.6625 16.422C61.6812 18.8967 60.8065 21.2647 60.0385 23.526C61.8732 22.9287 63.7932 22.4167 65.7985 21.99C67.8038 21.5633 69.8732 21.3073 72.0065 21.222H72.2625C72.6892 21.222 72.9025 21.3073 72.9025 21.478C72.9025 21.606 72.6892 21.7553 72.2625 21.926C71.8785 22.0967 71.2172 22.2033 70.2785 22.246C68.3158 22.3313 66.4598 22.5873 64.7105 23.014C62.9612 23.398 61.2972 23.8887 59.7185 24.486C58.9078 26.9607 58.2252 29.286 57.6705 31.462C57.1585 33.638 56.7318 35.6647 56.3905 37.542ZM51.9745 38.054C52.3158 38.054 52.6572 38.054 52.9985 38.054C53.3825 38.0113 53.7665 37.9687 54.1505 37.926C54.3212 36.0913 54.5772 34.1927 54.9185 32.23C55.2598 30.2247 55.7078 28.1553 56.2625 26.022C53.5318 27.43 51.3558 29.0087 49.7345 30.758C48.1132 32.4647 47.3025 33.9793 47.3025 35.302C47.3025 36.1127 47.6865 36.774 48.4545 37.286C49.2225 37.798 50.3958 38.054 51.9745 38.054ZM87.125 53.99C85.717 53.99 84.565 53.5633 83.669 52.71C82.8157 51.8567 82.1757 50.7687 81.749 49.446C81.3223 48.0807 81.109 46.6513 81.109 45.158C81.109 44.262 81.1943 43.4087 81.365 42.598C81.5357 41.7873 81.7063 41.126 81.877 40.614C81.8343 40.3153 81.7917 40.0167 81.749 39.718C81.749 39.3767 81.749 39.0353 81.749 38.694C81.749 37.4567 81.877 36.1127 82.133 34.662C82.389 33.2113 82.7943 31.8247 83.349 30.502C83.9463 29.1793 84.6717 28.1127 85.525 27.302C86.421 26.4487 87.509 26.022 88.789 26.022C89.8983 26.022 90.9863 26.4913 92.053 27.43C93.1197 28.326 94.0583 29.6487 94.869 31.398C95.3383 32.3793 95.6583 33.446 95.829 34.598C96.0423 35.7073 96.149 36.838 96.149 37.99C96.149 39.5687 95.9783 41.1473 95.637 42.726C95.3383 44.262 94.8903 45.7127 94.293 47.078C93.8663 48.0593 93.2903 49.1047 92.565 50.214C91.8823 51.2807 91.093 52.1767 90.197 52.902C89.301 53.6273 88.277 53.99 87.125 53.99ZM87.445 52.582C88.8957 52.582 90.2397 51.5793 91.477 49.574C92.373 48.166 93.013 46.566 93.397 44.774C93.781 42.9393 93.973 41.1047 93.973 39.27C93.973 37.9047 93.8877 36.582 93.717 35.302C93.5463 34.022 93.2903 32.7847 92.949 31.59C92.6503 30.5233 92.1383 29.5847 91.413 28.774C90.7303 27.9207 89.749 27.558 88.469 27.686C87.445 27.7713 86.549 28.2833 85.781 29.222C85.013 30.1607 84.4157 31.2273 83.989 32.422C83.605 33.574 83.413 34.5767 83.413 35.43C83.413 35.8993 83.477 36.262 83.605 36.518C83.733 36.1767 84.053 35.622 84.565 34.854C85.077 34.0433 85.653 33.318 86.293 32.678C86.933 31.9953 87.5303 31.654 88.085 31.654C88.5543 31.654 88.789 31.846 88.789 32.23C88.2343 32.2727 87.6797 32.614 87.125 33.254C86.613 33.8513 86.1223 34.5767 85.653 35.43C85.2263 36.2833 84.8637 37.1367 84.565 37.99C84.309 38.8007 84.117 39.4407 83.989 39.91C83.9463 40.0807 83.8823 40.294 83.797 40.55C83.7117 40.806 83.669 41.062 83.669 41.318C83.669 41.6167 83.8397 42.1073 84.181 42.79C84.5223 43.43 85.077 44.0273 85.845 44.582C86.613 45.1367 87.6583 45.414 88.981 45.414C89.365 45.414 89.7703 45.3713 90.197 45.286C90.6237 45.2007 91.029 45.1153 91.413 45.03L91.861 44.902C91.9463 44.902 91.989 44.9447 91.989 45.03C91.989 45.158 91.8397 45.3287 91.541 45.542C91.285 45.7127 91.0503 45.8407 90.837 45.926C90.2397 46.2247 89.5783 46.374 88.853 46.374C87.7863 46.374 86.7623 46.054 85.781 45.414C84.8423 44.7313 84.0103 43.9633 83.285 43.11C83.2423 43.4513 83.221 43.7927 83.221 44.134C83.221 44.4327 83.221 44.7313 83.221 45.03C83.221 47.5047 83.6477 49.382 84.501 50.662C85.3543 51.942 86.3357 52.582 87.445 52.582Z" fill="white"/>
</svg>
