<svg width="97" height="67" viewBox="0 0 97 67" fill="none" xmlns="http://www.w3.org/2000/svg">
<path d="M22.312 66.272C20.2213 66.272 18.216 65.3547 16.296 63.52C14.4187 61.6853 12.8827 59.0187 11.688 55.52C10.4933 52.064 9.896 47.8827 9.896 42.976C9.896 42.3787 9.896 41.76 9.896 41.12C9.93867 40.48 9.98133 39.8187 10.024 39.136C9.59733 39.1787 9.17067 39.2 8.744 39.2C8.36 39.2 7.99733 39.2 7.656 39.2C5.18133 39.2 3.368 38.88 2.216 38.24C1.10667 37.6 0.552 36.768 0.552 35.744C0.552 34.72 1.04267 33.5893 2.024 32.352C3.048 31.1147 4.456 29.856 6.248 28.576C8.04 27.296 10.1093 26.144 12.456 25.12C13.4373 21.5787 14.7173 17.8453 16.296 13.92C17.8747 9.99466 19.8373 5.89866 22.184 1.632C22.4827 1.07733 22.9307 0.799999 23.528 0.799999C23.912 0.799999 24.2533 0.927999 24.552 1.184C24.8507 1.44 25 1.78133 25 2.208C25 2.42133 24.936 2.69866 24.808 3.04C24.4667 3.72267 24.1253 4.42666 23.784 5.152C23.4427 5.83466 23.1013 6.51733 22.76 7.2C23.4 7.072 23.8907 7.008 24.232 7.008C24.5733 7.008 24.9787 6.98667 25.448 6.944C25.9173 6.90133 26.6427 6.816 27.624 6.688C28.9893 6.47466 30.2693 6.304 31.464 6.176C32.7013 6.048 33.8533 5.984 34.92 5.984C38.9733 5.984 41.96 6.688 43.88 8.096C45.8 9.504 46.76 11.296 46.76 13.472C46.76 16.0747 45.5013 18.9333 42.984 22.048C40.8933 24.608 38.2693 27.0827 35.112 29.472C31.9973 31.8613 28.4773 33.9093 24.552 35.616C20.6693 37.28 16.5307 38.3893 12.136 38.944C11.9653 40.1813 11.8373 41.376 11.752 42.528C11.6667 43.68 11.624 44.768 11.624 45.792C11.624 49.504 12.0507 52.5547 12.904 54.944C13.8 57.376 14.888 59.2747 16.168 60.64C17.4907 62.0053 18.792 62.9653 20.072 63.52C21.3947 64.0747 22.4613 64.352 23.272 64.352C23.912 64.352 24.3387 64.2453 24.552 64.032C24.7227 63.8187 24.9147 63.712 25.128 63.712C25.5973 63.712 25.832 64.032 25.832 64.672C25.832 65.184 25.5973 65.5253 25.128 65.696C24.232 66.08 23.2933 66.272 22.312 66.272ZM12.328 37.792C16.808 36.896 20.8613 35.5307 24.488 33.696C28.1573 31.8613 31.4 29.7493 34.216 27.36C37.032 24.9707 39.4 22.4747 41.32 19.872C42.4293 18.4213 43.2187 17.12 43.688 15.968C44.1573 14.7733 44.392 13.728 44.392 12.832C44.392 11.3813 43.88 10.2293 42.856 9.376C41.8747 8.48 40.5733 7.84 38.952 7.456C37.3307 7.072 35.5813 6.88 33.704 6.88C31.7413 6.88 29.8 7.05066 27.88 7.392C25.96 7.73333 24.2533 8.18133 22.76 8.736C22.4613 8.864 22.2053 8.88533 21.992 8.8C20.7547 11.5307 19.624 14.1547 18.6 16.672C17.6187 19.1467 16.744 21.5147 15.976 23.776C17.8107 23.1787 19.7307 22.6667 21.736 22.24C23.7413 21.8133 25.8107 21.5573 27.944 21.472H28.2C28.6267 21.472 28.84 21.5573 28.84 21.728C28.84 21.856 28.6267 22.0053 28.2 22.176C27.816 22.3467 27.1547 22.4533 26.216 22.496C24.2533 22.5813 22.3973 22.8373 20.648 23.264C18.8987 23.648 17.2347 24.1387 15.656 24.736C14.8453 27.2107 14.1627 29.536 13.608 31.712C13.096 33.888 12.6693 35.9147 12.328 37.792ZM7.912 38.304C8.25333 38.304 8.59467 38.304 8.936 38.304C9.32 38.2613 9.704 38.2187 10.088 38.176C10.2587 36.3413 10.5147 34.4427 10.856 32.48C11.1973 30.4747 11.6453 28.4053 12.2 26.272C9.46933 27.68 7.29333 29.2587 5.672 31.008C4.05067 32.7147 3.24 34.2293 3.24 35.552C3.24 36.3627 3.624 37.024 4.392 37.536C5.16 38.048 6.33333 38.304 7.912 38.304ZM43.4465 30.624C43.0625 30.624 42.7852 30.432 42.6145 30.048C42.4865 29.6213 42.4225 29.3227 42.4225 29.152C42.4225 28.4693 42.6145 27.8293 42.9985 27.232C43.4252 26.592 43.8945 26.2507 44.4065 26.208H44.5985C45.1105 26.208 45.4518 26.336 45.6225 26.592C45.8358 26.8053 45.9425 27.0827 45.9425 27.424C45.9425 28.064 45.6652 28.768 45.1105 29.536C44.5558 30.2613 44.0012 30.624 43.4465 30.624ZM40.1825 53.536C38.7318 53.536 37.7505 52.9813 37.2385 51.872C36.7265 50.7627 36.4705 49.4827 36.4705 48.032C36.4705 46.5813 36.6198 45.0667 36.9185 43.488C37.2598 41.8667 37.6225 40.3947 38.0065 39.072C38.4332 37.7493 38.7532 36.8107 38.9665 36.256C39.4358 35.2747 39.9052 34.4427 40.3745 33.76C40.8438 33.0347 41.3558 32.672 41.9105 32.672C42.2945 32.672 42.5718 32.8213 42.7425 33.12C42.9558 33.376 43.0625 33.7173 43.0625 34.144C43.0625 34.9973 42.8278 35.872 42.3585 36.768C41.8892 37.6213 41.4625 38.432 41.0785 39.2C40.2252 40.9493 39.5425 42.5067 39.0305 43.872C38.5612 45.2373 38.3265 46.944 38.3265 48.992C38.3265 50.3147 38.4545 51.2747 38.7105 51.872C39.0092 52.4693 39.4145 52.768 39.9265 52.768C40.6092 52.768 41.3985 52.384 42.2945 51.616C43.1905 50.8053 44.1078 49.7387 45.0465 48.416C45.9852 47.0933 46.8172 45.664 47.5425 44.128C48.0118 43.1467 48.3745 42.656 48.6305 42.656C48.8012 42.656 48.8865 42.8267 48.8865 43.168C48.8865 43.6373 48.6945 44.32 48.3105 45.216C47.9692 46.0693 47.5425 46.944 47.0305 47.84C46.5612 48.736 46.1132 49.44 45.6865 49.952C44.9612 50.8907 44.1292 51.7227 43.1905 52.448C42.2518 53.1733 41.2492 53.536 40.1825 53.536ZM66.8745 66.272C64.7838 66.272 62.7785 65.3547 60.8585 63.52C58.9812 61.6853 57.4452 59.0187 56.2505 55.52C55.0558 52.064 54.4585 47.8827 54.4585 42.976C54.4585 42.3787 54.4585 41.76 54.4585 41.12C54.5012 40.48 54.5438 39.8187 54.5865 39.136C54.1598 39.1787 53.7332 39.2 53.3065 39.2C52.9225 39.2 52.5598 39.2 52.2185 39.2C49.7438 39.2 47.9305 38.88 46.7785 38.24C45.6692 37.6 45.1145 36.768 45.1145 35.744C45.1145 34.72 45.6052 33.5893 46.5865 32.352C47.6105 31.1147 49.0185 29.856 50.8105 28.576C52.6025 27.296 54.6718 26.144 57.0185 25.12C57.9998 21.5787 59.2798 17.8453 60.8585 13.92C62.4372 9.99466 64.3998 5.89866 66.7465 1.632C67.0452 1.07733 67.4932 0.799999 68.0905 0.799999C68.4745 0.799999 68.8158 0.927999 69.1145 1.184C69.4132 1.44 69.5625 1.78133 69.5625 2.208C69.5625 2.42133 69.4985 2.69866 69.3705 3.04C69.0292 3.72267 68.6878 4.42666 68.3465 5.152C68.0052 5.83466 67.6638 6.51733 67.3225 7.2C67.9625 7.072 68.4532 7.008 68.7945 7.008C69.1358 7.008 69.5412 6.98667 70.0105 6.944C70.4798 6.90133 71.2052 6.816 72.1865 6.688C73.5518 6.47466 74.8318 6.304 76.0265 6.176C77.2638 6.048 78.4158 5.984 79.4825 5.984C83.5358 5.984 86.5225 6.688 88.4425 8.096C90.3625 9.504 91.3225 11.296 91.3225 13.472C91.3225 16.0747 90.0638 18.9333 87.5465 22.048C85.4558 24.608 82.8318 27.0827 79.6745 29.472C76.5598 31.8613 73.0398 33.9093 69.1145 35.616C65.2318 37.28 61.0932 38.3893 56.6985 38.944C56.5278 40.1813 56.3998 41.376 56.3145 42.528C56.2292 43.68 56.1865 44.768 56.1865 45.792C56.1865 49.504 56.6132 52.5547 57.4665 54.944C58.3625 57.376 59.4505 59.2747 60.7305 60.64C62.0532 62.0053 63.3545 62.9653 64.6345 63.52C65.9572 64.0747 67.0238 64.352 67.8345 64.352C68.4745 64.352 68.9012 64.2453 69.1145 64.032C69.2852 63.8187 69.4772 63.712 69.6905 63.712C70.1598 63.712 70.3945 64.032 70.3945 64.672C70.3945 65.184 70.1598 65.5253 69.6905 65.696C68.7945 66.08 67.8558 66.272 66.8745 66.272ZM56.8905 37.792C61.3705 36.896 65.4238 35.5307 69.0505 33.696C72.7198 31.8613 75.9625 29.7493 78.7785 27.36C81.5945 24.9707 83.9625 22.4747 85.8825 19.872C86.9918 18.4213 87.7812 17.12 88.2505 15.968C88.7198 14.7733 88.9545 13.728 88.9545 12.832C88.9545 11.3813 88.4425 10.2293 87.4185 9.376C86.4372 8.48 85.1358 7.84 83.5145 7.456C81.8932 7.072 80.1438 6.88 78.2665 6.88C76.3038 6.88 74.3625 7.05066 72.4425 7.392C70.5225 7.73333 68.8158 8.18133 67.3225 8.736C67.0238 8.864 66.7678 8.88533 66.5545 8.8C65.3172 11.5307 64.1865 14.1547 63.1625 16.672C62.1812 19.1467 61.3065 21.5147 60.5385 23.776C62.3732 23.1787 64.2932 22.6667 66.2985 22.24C68.3038 21.8133 70.3732 21.5573 72.5065 21.472H72.7625C73.1892 21.472 73.4025 21.5573 73.4025 21.728C73.4025 21.856 73.1892 22.0053 72.7625 22.176C72.3785 22.3467 71.7172 22.4533 70.7785 22.496C68.8158 22.5813 66.9598 22.8373 65.2105 23.264C63.4612 23.648 61.7972 24.1387 60.2185 24.736C59.4078 27.2107 58.7252 29.536 58.1705 31.712C57.6585 33.888 57.2318 35.9147 56.8905 37.792ZM52.4745 38.304C52.8158 38.304 53.1572 38.304 53.4985 38.304C53.8825 38.2613 54.2665 38.2187 54.6505 38.176C54.8212 36.3413 55.0772 34.4427 55.4185 32.48C55.7598 30.4747 56.2078 28.4053 56.7625 26.272C54.0318 27.68 51.8558 29.2587 50.2345 31.008C48.6132 32.7147 47.8025 34.2293 47.8025 35.552C47.8025 36.3627 48.1865 37.024 48.9545 37.536C49.7225 38.048 50.8958 38.304 52.4745 38.304ZM87.625 54.24C86.217 54.24 85.065 53.8133 84.169 52.96C83.3157 52.1067 82.6757 51.0187 82.249 49.696C81.8223 48.3307 81.609 46.9013 81.609 45.408C81.609 44.512 81.6943 43.6587 81.865 42.848C82.0357 42.0373 82.2063 41.376 82.377 40.864C82.3343 40.5653 82.2917 40.2667 82.249 39.968C82.249 39.6267 82.249 39.2853 82.249 38.944C82.249 37.7067 82.377 36.3627 82.633 34.912C82.889 33.4613 83.2943 32.0747 83.849 30.752C84.4463 29.4293 85.1717 28.3627 86.025 27.552C86.921 26.6987 88.009 26.272 89.289 26.272C90.3983 26.272 91.4863 26.7413 92.553 27.68C93.6197 28.576 94.5583 29.8987 95.369 31.648C95.8383 32.6293 96.1583 33.696 96.329 34.848C96.5423 35.9573 96.649 37.088 96.649 38.24C96.649 39.8187 96.4783 41.3973 96.137 42.976C95.8383 44.512 95.3903 45.9627 94.793 47.328C94.3663 48.3093 93.7903 49.3547 93.065 50.464C92.3823 51.5307 91.593 52.4267 90.697 53.152C89.801 53.8773 88.777 54.24 87.625 54.24ZM87.945 52.832C89.3957 52.832 90.7397 51.8293 91.977 49.824C92.873 48.416 93.513 46.816 93.897 45.024C94.281 43.1893 94.473 41.3547 94.473 39.52C94.473 38.1547 94.3877 36.832 94.217 35.552C94.0463 34.272 93.7903 33.0347 93.449 31.84C93.1503 30.7733 92.6383 29.8347 91.913 29.024C91.2303 28.1707 90.249 27.808 88.969 27.936C87.945 28.0213 87.049 28.5333 86.281 29.472C85.513 30.4107 84.9157 31.4773 84.489 32.672C84.105 33.824 83.913 34.8267 83.913 35.68C83.913 36.1493 83.977 36.512 84.105 36.768C84.233 36.4267 84.553 35.872 85.065 35.104C85.577 34.2933 86.153 33.568 86.793 32.928C87.433 32.2453 88.0303 31.904 88.585 31.904C89.0543 31.904 89.289 32.096 89.289 32.48C88.7343 32.5227 88.1797 32.864 87.625 33.504C87.113 34.1013 86.6223 34.8267 86.153 35.68C85.7263 36.5333 85.3637 37.3867 85.065 38.24C84.809 39.0507 84.617 39.6907 84.489 40.16C84.4463 40.3307 84.3823 40.544 84.297 40.8C84.2117 41.056 84.169 41.312 84.169 41.568C84.169 41.8667 84.3397 42.3573 84.681 43.04C85.0223 43.68 85.577 44.2773 86.345 44.832C87.113 45.3867 88.1583 45.664 89.481 45.664C89.865 45.664 90.2703 45.6213 90.697 45.536C91.1237 45.4507 91.529 45.3653 91.913 45.28L92.361 45.152C92.4463 45.152 92.489 45.1947 92.489 45.28C92.489 45.408 92.3397 45.5787 92.041 45.792C91.785 45.9627 91.5503 46.0907 91.337 46.176C90.7397 46.4747 90.0783 46.624 89.353 46.624C88.2863 46.624 87.2623 46.304 86.281 45.664C85.3423 44.9813 84.5103 44.2133 83.785 43.36C83.7423 43.7013 83.721 44.0427 83.721 44.384C83.721 44.6827 83.721 44.9813 83.721 45.28C83.721 47.7547 84.1477 49.632 85.001 50.912C85.8543 52.192 86.8357 52.832 87.945 52.832Z" fill="black"/>
</svg>
